<svg xmlns="http://www.w3.org/2000/svg" xmlns:xlink="http://www.w3.org/1999/xlink" width="129.501" height="121.649" viewBox="0 0 129.501 121.649">
  <defs>
    <linearGradient id="linear-gradient" x1="0.974" y1="-0.107" x2="0.499" y2="0.468" gradientUnits="objectBoundingBox">
      <stop offset="0" stop-color="#f90"/>
      <stop offset="1" stop-color="#ffd425"/>
    </linearGradient>
    <linearGradient id="linear-gradient-2" x1="10.246" y1="-2.164" x2="-4.614" y2="1.898" xlink:href="#linear-gradient"/>
    <linearGradient id="linear-gradient-3" x1="6.378" y1="-6.189" x2="-4.662" y2="6.375" xlink:href="#linear-gradient"/>
  </defs>
  <g id="Groupe_7106" data-name="Groupe 7106" transform="translate(-107.999 -52.001)">
    <g id="Groupe_7105" data-name="Groupe 7105" transform="translate(107.999 52.001)">
      <g id="Groupe_7103" data-name="Groupe 7103" transform="translate(31.435 46.442)">
        <path id="Tracé_16157" data-name="Tracé 16157" d="M144.765,89.581V107.2a7.818,7.818,0,0,0,1.554,5.3,6.535,6.535,0,0,0,8.938,0,7.823,7.823,0,0,0,1.553-5.3V89.581h5.958V107.2a14.633,14.633,0,0,1-1.554,7.043,10.006,10.006,0,0,1-4.3,4.277,13.5,13.5,0,0,1-6.236,1.405,11.675,11.675,0,0,1-8.639-3.235q-3.234-3.234-3.235-9.491V89.581Z" transform="translate(-138.806 -89.581)"/>
        <path id="Tracé_16158" data-name="Tracé 16158" d="M184.915,119.627l-6.767-10.256-6,10.256h-6.853l9.449-15.363-9.7-14.683h7.107l6.639,10.043L184.7,89.581h6.852l-9.406,15.109,9.874,14.938Z" transform="translate(-138.014 -89.581)"/>
      </g>
      <g id="Groupe_7104" data-name="Groupe 7104" transform="translate(0 0)">
        <path id="Tracé_16159" data-name="Tracé 16159" d="M237.7,119.884l-8.15-14.114a.658.658,0,0,0-1.139,0l-8.15,14.114a.658.658,0,0,0,.57.987H226.5v41H112.569V48.776H226.5v30.2a6.685,6.685,0,0,0-1.568-1.036,8.059,8.059,0,0,0-3.5-.785,9.15,9.15,0,0,0-3.6.69,8.183,8.183,0,0,0-2.771,1.916,8.513,8.513,0,0,0-1.765,2.873,10.073,10.073,0,0,0-.614,3.546,9.966,9.966,0,0,0,.614,3.531,8.746,8.746,0,0,0,1.763,2.868,8.046,8.046,0,0,0,2.773,1.936,9.135,9.135,0,0,0,3.6.691,8.1,8.1,0,0,0,3.412-.765,6.745,6.745,0,0,0,1.747-1.15V94.8h4.139V94.64l.05.158V47.175A2.676,2.676,0,0,0,228.1,44.5H110.968a2.676,2.676,0,0,0-2.676,2.676v116.3a2.676,2.676,0,0,0,2.676,2.676H228.1a2.676,2.676,0,0,0,2.676-2.676v-42.6h6.354A.658.658,0,0,0,237.7,119.884ZM226.247,88.267a4.349,4.349,0,0,1-2.9,2.8,5.043,5.043,0,0,1-3.1-.005,4.53,4.53,0,0,1-1.94-1.2,4.592,4.592,0,0,1-.946-1.591,6.514,6.514,0,0,1,0-4.172,4.6,4.6,0,0,1,.946-1.591,4.4,4.4,0,0,1,1.492-1.032,5.442,5.442,0,0,1,4.009,0A4.409,4.409,0,0,1,225.3,82.5a4.6,4.6,0,0,1,.946,1.591,6.514,6.514,0,0,1,0,4.172Z" transform="translate(-108.292 -44.499)" fill="url(#linear-gradient)"/>
        <rect id="Rectangle_3299" data-name="Rectangle 3299" width="4.138" height="17.233" transform="translate(93.815 33.066)" fill="url(#linear-gradient-2)"/>
        <path id="Tracé_16160" data-name="Tracé 16160" d="M203.413,68.221a2.76,2.76,0,1,0,.821,1.965A2.694,2.694,0,0,0,203.413,68.221Z" transform="translate(-105.565 -43.808)" fill="url(#linear-gradient-3)"/>
      </g>
    </g>
  </g>
</svg>
